<svg xmlns="http://www.w3.org/2000/svg" viewBox="0 0 32 32" fill="none">
  <rect width="32" height="32" rx="8" fill="#2563eb"/>
  <path d="M16 4C11.03 4 7 8.03 7 13c0 3.07 1.54 5.77 3.89 7.39.18.12.3.31.32.52l.52 5.59c.04.46.43.8.89.76.21-.02.4-.12.53-.28l2.13-2.72c.2-.26.5-.4.83-.4h.78l.01.01.02-.01h.78c.32 0 .63.14.83.4l2.13 2.72c.28.35.77.42 1.12.14.13-.1.2-.24.23-.39l.52-5.66c.02-.2.14-.39.32-.52C23.46 18.77 25 16.07 25 13c0-4.97-4.03-9-9-9z" fill="#fff" opacity="0.9"/>
  <path d="M12 13l2.5 2.5L20 10" stroke="#2563eb" stroke-width="2.3" stroke-linecap="round" stroke-linejoin="round"/>
</svg>
